<svg width="14" height="16" viewBox="0 0 14 16" fill="none" xmlns="http://www.w3.org/2000/svg">
<path fill-rule="evenodd" clip-rule="evenodd" d="M0.699219 14.2998C0.699219 13.8027 1.10216 13.3998 1.59922 13.3998H12.3992C12.8963 13.3998 13.2992 13.8027 13.2992 14.2998C13.2992 14.7969 12.8963 15.1998 12.3992 15.1998H1.59922C1.10216 15.1998 0.699219 14.7969 0.699219 14.2998ZM3.66282 7.36341C4.01429 7.01194 4.58414 7.01194 4.93561 7.36341L6.09922 8.52701V1.6998C6.09922 1.20275 6.50216 0.799805 6.99922 0.799805C7.49627 0.799805 7.89922 1.20275 7.89922 1.6998L7.89922 8.52701L9.06282 7.36341C9.41429 7.01194 9.98414 7.01194 10.3356 7.36341C10.6871 7.71488 10.6871 8.28473 10.3356 8.6362L7.63561 11.3362C7.46683 11.505 7.23791 11.5998 6.99922 11.5998C6.76052 11.5998 6.53161 11.505 6.36282 11.3362L3.66282 8.6362C3.31135 8.28473 3.31135 7.71488 3.66282 7.36341Z" fill="currentColor"/>
</svg>
