<svg width="127" height="109" viewBox="0 0 127 109" fill="none" xmlns="http://www.w3.org/2000/svg">
<rect x="31.9868" width="93.0134" height="46.3344" rx="10" fill="#EFF0F1"/>
<rect x="40.8606" y="8.40039" width="13.8141" height="3.59998" rx="1.79999" fill="#DCE2E4"/>
<rect x="40.8606" y="14.4014" width="45.8378" height="3.59998" rx="1.79999" fill="#DCE2E4"/>
<rect x="105.536" y="8.40039" width="8.79081" height="8.39995" rx="4.19997" fill="#DCE2E4"/>
<rect x="40.8606" y="21.6006" width="74.094" height="5.39997" rx="2.69998" fill="#DADFE2"/>
<g filter="url(#filter0_d_5824_40977)">
<rect x="17" y="24.6006" width="92.9314" height="65.3996" rx="10" fill="white"/>
</g>
<rect x="25.7908" y="79.8008" width="12.5583" height="4.19997" rx="2.09999" fill="#DCE2E4"/>
<rect x="40.8606" y="34.2012" width="40.1866" height="4.19997" rx="2.09999" fill="#DCE2E4"/>
<rect x="83.5591" y="34.2012" width="8.16289" height="4.19997" rx="2.09999" fill="#DCE2E4"/>
<rect x="25.7908" y="33" width="12.5583" height="11.9999" rx="3.5102" fill="#DCE2E4"/>
<rect x="40.8606" y="40.8018" width="17.5816" height="2.99998" rx="1.49999" fill="#EDF1F2"/>
<rect x="25.7908" y="52.2021" width="12.5583" height="4.19997" rx="2.09999" fill="#EDF1F2"/>
<rect x="25.7908" y="58.2012" width="50.8611" height="4.19997" rx="2.09999" fill="#EDF1F2"/>
<rect x="25.7908" y="64.8008" width="64.0473" height="4.19997" rx="2.09999" fill="#EDF1F2"/>
<rect x="25.7908" y="71.4023" width="74.7219" height="4.19997" rx="2.09999" fill="#EDF1F2"/>
<defs>
<filter id="filter0_d_5824_40977" x="0.15102" y="9.15569" width="126.629" height="99.0974" filterUnits="userSpaceOnUse" color-interpolation-filters="sRGB">
<feFlood flood-opacity="0" result="BackgroundImageFix"/>
<feColorMatrix in="SourceAlpha" type="matrix" values="0 0 0 0 0 0 0 0 0 0 0 0 0 0 0 0 0 0 127 0" result="hardAlpha"/>
<feOffset dy="1.40408"/>
<feGaussianBlur stdDeviation="8.42449"/>
<feColorMatrix type="matrix" values="0 0 0 0 0.505882 0 0 0 0 0.576471 0 0 0 0 0.658824 0 0 0 0.363035 0"/>
<feBlend mode="normal" in2="BackgroundImageFix" result="effect1_dropShadow_5824_40977"/>
<feBlend mode="normal" in="SourceGraphic" in2="effect1_dropShadow_5824_40977" result="shape"/>
</filter>
</defs>
</svg>
